<?xml version="1.0" standalone="no"?>
<!DOCTYPE svg PUBLIC "-//W3C//DTD SVG 20010904//EN"
 "http://www.w3.org/TR/2001/REC-SVG-20010904/DTD/svg10.dtd">
<svg version="1.0" xmlns="http://www.w3.org/2000/svg"
 width="1250.000000pt" height="460.000000pt" viewBox="0 0 1250.000000 460.000000" fill="rgb(220, 38, 38"
 preserveAspectRatio="xMidYMid meet">

<g transform="translate(0.000000,460.000000) scale(0.100000,-0.100000)"
fill="#000000" stroke="none">
<path d="M1195 4494 c-71 -13 -135 -25 -142 -26 -7 -2 55 -82 138 -178 151
-176 245 -304 275 -375 27 -67 36 -151 24 -246 -21 -173 -47 -213 -324 -498
-304 -311 -344 -362 -367 -472 -13 -60 -4 -139 16 -139 7 0 40 16 72 35 84 50
147 60 280 46 139 -15 217 -37 252 -72 57 -56 96 -173 136 -404 13 -78 40
-188 60 -245 89 -259 103 -340 126 -705 17 -295 37 -369 121 -465 52 -59 106
-157 141 -255 45 -128 95 -220 156 -287 72 -79 91 -107 91 -133 0 -11 4 -27
10 -35 8 -12 12 -12 35 0 37 20 111 126 145 208 55 130 74 302 35 302 -25 0
-46 -46 -56 -119 -9 -76 -45 -157 -86 -199 l-26 -26 -18 22 c-20 25 -35 87
-45 187 l-7 69 -23 -52 c-26 -58 -39 -65 -49 -24 -9 39 -66 147 -120 231 -85
131 -115 207 -126 317 -23 241 -31 286 -65 409 -42 149 -51 250 -22 268 28 19
40 -5 46 -87 2 -42 9 -76 14 -76 5 0 20 12 34 27 l25 28 -8 -50 c-4 -27 -7
-71 -6 -96 2 -50 38 -134 53 -124 6 4 10 39 10 80 0 41 4 76 9 79 4 3 19 -29
31 -72 l24 -77 8 65 c22 174 44 238 107 310 46 53 53 32 45 -122 -4 -83 -3
-128 4 -128 5 0 13 16 16 35 7 35 19 44 31 24 6 -9 75 -265 75 -276 0 -2 4 -1
10 2 6 3 10 25 10 48 0 62 17 112 46 139 80 71 74 57 74 176 0 127 8 143 89
188 51 27 73 59 65 92 -6 21 36 62 64 62 35 0 -13 29 -98 60 -50 17 -90 34
-90 36 0 2 72 3 160 1 168 -2 193 5 130 35 -31 15 -78 25 -270 59 -81 14 -89
27 -60 90 33 70 51 81 125 73 89 -9 94 -11 60 -38 -35 -28 -29 -51 15 -59 17
-4 1718 -7 3779 -7 3992 0 3789 -3 3779 46 -3 19 -54 19 -3543 25 -3044 6
-3842 12 -3892 28 -2 1 -3 10 -3 20 0 23 -4 24 -134 50 -120 24 -169 53 -196
115 -24 57 -35 62 -65 32 -30 -31 -31 -41 -4 -64 66 -54 65 -62 -16 -158 -75
-91 -83 -114 -56 -167 36 -71 39 -267 4 -302 -16 -17 -138 -22 -147 -6 -3 5 1
22 9 39 24 46 38 193 33 337 -5 135 -11 165 -33 165 -19 0 -28 18 -36 65 l-6
40 -23 -52 c-12 -29 -26 -53 -30 -53 -4 0 -11 32 -15 72 -8 83 -18 108 -45
108 -35 0 -127 139 -222 337 -32 67 -61 136 -64 155 l-6 33 36 -40 c100 -110
97 -108 132 -102 34 6 34 5 34 -32 0 -67 103 -180 182 -201 32 -9 58 -27 104
-74 66 -69 108 -101 122 -92 5 3 7 27 4 54 -4 47 -3 49 38 82 l42 34 -6 53
c-3 29 -3 53 0 53 4 0 22 -12 41 -26 19 -14 36 -24 39 -21 3 2 -4 40 -16 83
-26 100 -25 112 4 124 59 22 39 215 -24 235 -28 9 -25 38 7 87 35 53 34 99 -3
167 -36 67 -123 157 -169 177 -45 18 -53 13 -38 -26 13 -34 7 -43 -19 -29 -28
15 -68 3 -68 -20 0 -24 39 -72 74 -90 46 -25 28 -29 -46 -10 -39 11 -80 19
-90 19 -43 0 -10 52 138 217 174 194 239 299 264 430 13 68 9 158 -8 175 -17
17 -68 -6 -213 -92 -177 -106 -235 -122 -278 -76 -17 18 -25 43 -31 96 -12
108 -31 124 -228 191 -114 39 -220 87 -331 149 -63 35 -75 36 -246 4z m178
-195 c98 -48 207 -124 292 -201 76 -69 91 -93 75 -112 -8 -11 1 -30 36 -82 26
-38 71 -104 101 -147 63 -92 68 -125 24 -165 -36 -34 -182 -112 -209 -112 -30
0 -79 45 -92 84 -6 21 -10 87 -8 164 3 122 2 132 -20 161 -15 20 -20 39 -17
54 9 36 -59 129 -206 281 -71 74 -129 136 -129 139 0 8 55 -15 153 -64z m621
-1130 c37 -44 61 -94 76 -159 26 -112 53 -147 103 -135 13 4 50 31 82 61 68
64 121 94 165 94 39 0 36 -21 -4 -31 -38 -10 -76 -47 -76 -73 -1 -41 -39 -105
-81 -135 -57 -42 -72 -65 -64 -101 7 -34 0 -37 -32 -15 -14 10 -23 28 -25 53
-3 33 -8 39 -51 60 -61 29 -71 53 -56 138 6 35 8 71 5 79 -5 14 -9 14 -35 0
-42 -21 -44 -20 -37 30 6 34 4 45 -6 46 -7 1 -42 2 -78 3 l-65 1 -3 118 -3
118 79 -60 c44 -33 91 -74 106 -92z m332 100 c8 -14 -14 -29 -44 -29 -30 0
-64 18 -57 31 9 13 92 11 101 -2z m-711 -167 c28 -20 39 -50 46 -130 19 -208
-43 -268 -276 -266 -130 1 -312 28 -334 49 -19 19 -6 49 47 103 89 90 231 182
356 228 60 23 141 31 161 16z m146 -577 c28 -62 11 -87 -31 -45 -12 12 -20 33
-20 55 0 51 26 46 51 -10z m120 -43 c7 -8 21 -11 40 -7 33 8 39 -8 12 -37 -41
-46 -117 13 -97 75 6 20 7 20 20 1 7 -10 18 -25 25 -32z m209 -458 c29 -47 47
-101 36 -111 -18 -19 -85 86 -86 135 0 35 18 26 50 -24z m-272 -183 c3 -102
-6 -110 -39 -37 -23 51 -24 85 -3 114 28 41 39 21 42 -77z m256 3 c9 -24 7
-67 -4 -84 -9 -13 -11 -13 -20 0 -17 26 -10 100 10 100 4 0 11 -7 14 -16z
m320 -166 c16 -26 21 -79 17 -183 l-3 -70 -15 50 c-8 28 -22 75 -31 105 -13
47 -16 52 -22 30 -3 -14 -14 -26 -23 -28 -27 -5 -22 51 9 87 31 37 48 39 68 9z"/>
<path d="M2638 3199 c-20 -11 -23 -41 -8 -70 11 -19 64 -19 3810 -19 3746 0
3799 0 3810 19 14 27 13 47 -6 65 -14 15 -373 16 -3802 16 -2554 -1 -3793 -4
-3804 -11z"/>
<path d="M2751 3012 c-19 -9 -44 -30 -55 -45 -20 -27 -21 -41 -21 -267 0 -226
1 -240 21 -267 42 -58 68 -63 302 -63 230 0 256 5 302 54 24 26 25 34 28 177
l3 149 -140 0 -141 0 0 -70 0 -70 70 0 70 0 0 -50 0 -50 -190 0 -190 0 0 190
0 190 190 0 190 0 0 -30 0 -30 70 0 70 0 0 48 c0 60 -26 110 -71 134 -30 16
-60 18 -254 18 -190 0 -225 -2 -254 -18z"/>
<path d="M3430 2700 l0 -330 70 0 70 0 0 330 0 330 -70 0 -70 0 0 -330z"/>
<path d="M3650 2700 l0 -330 271 0 c301 0 323 4 360 64 15 25 19 51 19 139 0
60 -5 118 -11 129 -6 11 -12 69 -13 129 -1 92 -4 112 -22 136 -43 59 -63 63
-346 63 l-258 0 0 -330z m490 135 l0 -55 -175 0 -175 0 0 55 0 55 175 0 175 0
0 -55z m20 -260 l0 -65 -185 0 -185 0 0 65 0 65 185 0 185 0 0 -65z"/>
<path d="M4400 2700 l0 -330 305 0 305 0 0 70 0 70 -230 0 -230 0 0 60 0 60
185 0 185 0 0 70 0 70 -185 0 -185 0 0 60 0 60 230 0 230 0 0 70 0 70 -305 0
-305 0 0 -330z"/>
<path d="M5100 2700 l0 -330 330 0 330 0 0 70 0 70 -260 0 -260 0 0 260 0 260
-70 0 -70 0 0 -330z"/>
<path d="M5891 3012 c-19 -9 -44 -30 -55 -45 -20 -27 -21 -41 -21 -267 0 -226
1 -240 21 -267 42 -58 68 -63 302 -63 230 0 256 5 302 54 24 26 25 34 28 177
l3 149 -140 0 -141 0 0 -70 0 -70 70 0 70 0 0 -50 0 -50 -190 0 -190 0 0 190
0 190 190 0 190 0 0 -30 0 -30 70 0 70 0 0 48 c0 60 -26 110 -71 134 -30 16
-60 18 -254 18 -190 0 -225 -2 -254 -18z"/>
<path d="M6570 2751 c0 -272 0 -279 23 -312 43 -66 64 -70 319 -67 331 4 318
-11 318 386 l0 272 -70 0 -70 0 0 -260 0 -260 -190 0 -190 0 0 260 0 260 -70
0 -70 0 0 -279z"/>
<path d="M7330 2751 c0 -272 0 -279 23 -312 43 -66 64 -70 319 -67 331 4 318
-11 318 386 l0 272 -70 0 -70 0 0 -260 0 -260 -190 0 -190 0 0 260 0 260 -70
0 -70 0 0 -279z"/>
<path d="M8171 3012 c-19 -9 -44 -30 -55 -45 -20 -27 -21 -41 -21 -267 0 -226
1 -240 21 -267 42 -58 68 -63 302 -63 230 0 256 5 302 54 24 26 25 34 28 177
l3 149 -140 0 -141 0 0 -70 0 -70 70 0 70 0 0 -50 0 -50 -190 0 -190 0 0 190
0 190 190 0 190 0 0 -30 0 -30 70 0 70 0 0 48 c0 60 -26 110 -71 134 -30 16
-60 18 -254 18 -190 0 -225 -2 -254 -18z"/>
<path d="M8850 2700 l0 -330 305 0 305 0 0 70 0 70 -230 0 -230 0 0 60 0 60
185 0 185 0 0 70 0 70 -185 0 -185 0 0 60 0 60 230 0 230 0 0 70 0 70 -305 0
-305 0 0 -330z"/>
<path d="M9560 2700 l0 -330 70 0 70 0 0 110 0 110 98 -1 97 0 90 -109 90
-109 73 -1 c69 0 72 1 72 23 0 14 -28 56 -71 107 l-71 85 32 8 c89 23 110 64
110 220 0 102 -2 118 -23 148 -44 66 -60 69 -364 69 l-273 0 0 -330z m520 110
l0 -80 -190 0 -190 0 0 80 0 80 190 0 190 0 0 -80z"/>
</g>
</svg>
